{"title":"Fukrey [2013] 1CD DVDRIP XVID ESUBS [EXDKING]","uid":8840921,"size":737709805,"categoryP":"video","categoryS":"movies","magnet":"?xt=urn:btih:8555a363e0e5108de2d7fed35bd0800fa28ff06b&amp;dn=Fukrey+%5B2013%5D+1CD+DVDRIP+XVID+ESUBS+%5BEXDKING%5D&amp;tr=udp%3A%2F%2Ftracker.openbittorrent.com%3A80&amp;tr=udp%3A%2F%2Fopen.demonii.com%3A1337&amp;tr=udp%3A%2F%2Ftracker.coppersurfer.tk%3A6969&amp;tr=udp%3A%2F%2Fexodus.desync.com%3A6969","seeders":0,"leechers":0,"uploader":"TeX","files":4,"time":1377241599,"description":"ormat : AVI\nFormat/Info : Audio Video Interleave\nFile size : 696 MiB\nDuration : 2h 21mn\nOverall bit rate : 687 Kbps\n\nVideo\nID : 0\nFormat : MPEG-4 Visual\nFormat profile : Advanced Simple@L5\nFormat settings, BVOP : 2\nFormat settings, QPel : No\nFormat settings, GMC : No warppoints\nFormat settings, Matrix : Default (H.263)\nCodec ID : XVID\nCodec ID/Hint : XviD\nDuration : 2h 21mn\nBit rate : 586 Kbps\nWidth : 640 pixels\nHeight : 272 pixels\nDisplay aspect ratio : 2.35:1\nFrame rate : 23.976 fps\nColor space : YUV\nChroma subsampling : 4:2:0\nBit depth : 8 bits\nScan type : Progressive\nCompression mode : Lossy\nBits/(Pixel*Frame) : 0.140\nStream size : 593 MiB (85%)\nWriting library : XviD 1.2.1 (UTC 2008-12-04)\n\nAudio\nID : 1\nFormat : MPEG Audio\nFormat version : Version 1\nFormat profile : Layer 3\nMode : Joint stereo\nMode extension : MS Stereo\nCodec ID : 55\nCodec ID/Hint : MP3\nDuration : 2h 21mn\nBit rate mode : Constant\nBit rate : 96.0 Kbps\nChannel(s) : 2 channels\nSampling rate : 32.0 KHz\nCompression mode : Lossy\nStream size : 97.2 MiB (14%)\n","torrent":{"xt":"urn:btih:8555a363e0e5108de2d7fed35bd0800fa28ff06b","amp;dn":"Fukrey+%5B2013%5D+1CD+DVDRIP+XVID+ESUBS+%5BEXDKING%5D","amp;tr":["udp%3A%2F%2Ftracker.openbittorrent.com%3A80","udp%3A%2F%2Fopen.demonii.com%3A1337","udp%3A%2F%2Ftracker.coppersurfer.tk%3A6969","udp%3A%2F%2Fexodus.desync.com%3A6969"],"infoHash":"8555a363e0e5108de2d7fed35bd0800fa28ff06b","infoHashBuffer":{"type":"Buffer","data":[133,85,163,99,224,229,16,141,226,215,254,211,91,208,128,15,162,143,240,107]},"announce":[],"urlList":[]}}